<svg version="1.1" viewBox="0.0 0.0 226.77165354330708 226.77165354330708" fill="none" stroke="none" stroke-linecap="square" stroke-miterlimit="10" xmlns:xlink="http://www.w3.org/1999/xlink" xmlns="http://www.w3.org/2000/svg"><clipPath id="p.0"><path d="m0 0l226.77165 0l0 226.77165l-226.77165 0l0 -226.77165z" clip-rule="nonzero"/></clipPath><g clip-path="url(#p.0)"><path fill="#000000" fill-opacity="0.0" d="m0 0l226.77165 0l0 226.77165l-226.77165 0z" fill-rule="evenodd"/><path fill="#000000" fill-opacity="0.0" d="m55.587925 -64.05249l135.87402 0l0 310.2677l-135.87402 0z" fill-rule="evenodd"/><path fill="#0d579b" d="m223.3848 34.5975l-54.5 0l0 140.75l-44.999992 0l0 -140.75l-54.484375 0l0 -33.75l153.98438 0l0 33.75z" fill-rule="nonzero"/><path fill="#000000" fill-opacity="0.0" d="m84.05774 61.343834l155.1811 0l0 213.32281l-155.1811 0z" fill-rule="evenodd"/><path fill="#666666" d="m194.69836 136.20944l-33.828125 87.734375l-31.875 0l-33.59375 -87.734375l29.765625 0l20.3125 60.3125l20.078125 -60.3125l29.140625 0z" fill-rule="nonzero"/><path fill="#000000" fill-opacity="0.0" d="m-10.637795 -16.713911l135.87402 0l0 310.2677l-135.87402 0z" fill-rule="evenodd"/><path fill="#0d579b" d="m111.56533 171.46733q0 11.484375 -4.109375 21.515625q-4.09375 10.015625 -12.171875 16.921875q-8.5625 7.390625 -20.640625 11.4375q-12.0625 4.046875 -29.875 4.046875q-12.0625 0 -22.734377 -0.890625q-10.656249 -0.875 -18.75 -2.515625l0 -35.390625l4.21875 0q5.6250005 2.109375 11.71875 3.921875q6.09375 1.8125 15.593752 1.8125q12.296875 0 18.921875 -3.28125q6.625 -3.28125 9.4375 -9.140625q2.6875 -5.734375 3.03125 -12.59375q0.359375 -6.859375 0.359375 -17.515625l0 -69.5l-39.953125 0l0 -32.10937l84.953125 0l0 123.28125z" fill-rule="nonzero"/></g></svg>