<?xml version="1.0" standalone="no"?>
<!DOCTYPE svg PUBLIC "-//W3C//DTD SVG 20010904//EN"
 "http://www.w3.org/TR/2001/REC-SVG-20010904/DTD/svg10.dtd">
<svg version="1.0" xmlns="http://www.w3.org/2000/svg"
 width="700.000000pt" height="700.000000pt" viewBox="0 0 700.000000 700.000000"
 preserveAspectRatio="xMidYMid meet">
<metadata>
Created by potrace 1.11, written by Peter Selinger 2001-2013
</metadata>
<g transform="translate(0.000000,700.000000) scale(0.100000,-0.100000)"
fill="#000000" stroke="none">
<path d="M2143 6453 l0 -522 839 2 c553 1 838 -1 839 -8 1 -5 2 -711 3 -1567
1 -1032 -2 -1559 -9 -1561 -9 -2 -351 -1 -365 2 -3 1 -5 609 -5 1352 0 743 -4
1353 -8 1356 -5 3 -594 5 -1310 5 l-1302 0 0 -493 0 -494 609 -1 c402 -1 611
-5 615 -12 8 -14 6 -2451 -3 -2622 -21 -409 -157 -638 -447 -749 -65 -25 -102
-35 -209 -56 -90 -18 -382 -25 -535 -13 -125 10 -224 34 -434 104 -157 51
-207 64 -258 64 l-63 0 1 -550 c0 -303 4 -548 8 -546 4 3 23 1 42 -4 33 -8 77
-16 149 -26 19 -2 46 -7 60 -9 14 -3 57 -7 95 -11 39 -3 72 -8 75 -9 4 -2 51
-7 105 -10 55 -4 111 -9 125 -11 146 -24 882 -23 1055 1 17 2 53 7 80 11 28 4
57 8 65 9 45 6 100 17 135 26 22 6 45 12 50 13 104 21 245 70 393 137 76 35
235 130 312 188 285 214 452 471 545 841 9 35 19 80 21 100 2 19 8 55 12 80
l8 45 13 -35 c7 -19 23 -62 36 -95 13 -33 83 -215 155 -405 72 -190 153 -401
180 -470 26 -69 72 -188 101 -265 29 -77 56 -144 60 -149 6 -6 814 -12 965 -7
17 1 28 21 63 114 24 61 49 126 56 142 7 17 31 80 55 140 23 61 52 137 65 170
13 33 47 121 75 195 29 74 67 173 85 220 18 47 70 182 115 300 45 118 85 224
90 235 6 11 86 220 180 465 94 245 174 454 179 465 5 11 28 70 51 130 23 61
44 115 46 120 3 8 -120 11 -391 10 -388 0 -396 0 -400 20 -2 11 -3 716 -3
1568 1 1406 3 1547 17 1547 9 0 387 1 841 3 l825 2 0 518 c0 339 -3 517 -10
518 -5 1 -1075 2 -2376 3 l-2367 1 1 -522z m2564 -4871 c-2 -4 -51 -148 -107
-319 -57 -172 -106 -313 -109 -313 -4 0 -53 141 -110 313 -58 171 -106 315
-107 318 -2 3 95 7 216 7 121 0 219 -2 217 -6z"/>
</g>
</svg>
